<svg width="257" height="211" viewBox="0 0 257 211" fill="none" xmlns="http://www.w3.org/2000/svg">
<path fill-rule="evenodd" clip-rule="evenodd" d="M256.443 1.33193L224.287 92.7764L175.119 110.838L141.559 154.916L96.4538 162.935L64.503 191.391L1.29571 210.955L0.704346 209.045L63.497 189.609L95.5463 161.065L140.441 153.084L173.881 109.162L222.713 91.224L254.557 0.668457L256.443 1.33193Z" fill="#5B49BA"/>
<path d="M60.9639 190.001L64.4994 186.465L68.035 190.001L64.4994 193.536L60.9639 190.001Z" fill="white"/>
<path d="M92.9639 162.001L96.4994 158.465L100.035 162.001L96.4994 165.536L92.9639 162.001Z" fill="white"/>
<path d="M137.964 153.001L141.499 149.465L145.035 153.001L141.499 156.536L137.964 153.001Z" fill="white"/>
<path d="M170.964 110.001L174.499 106.465L178.035 110.001L174.499 113.536L170.964 110.001Z" fill="white"/>
<path d="M218.964 91.0007L222.499 87.4651L226.035 91.0007L222.499 94.5362L218.964 91.0007Z" fill="white"/>
<path fill-rule="evenodd" clip-rule="evenodd" d="M64 194.563L64 193.5L65 193.5L65 194.563L64 194.563ZM64 198.813L64 196.688L65 196.688L65 198.813L64 198.813ZM64 203.063L64 200.938L65 200.938L65 203.063L64 203.063ZM64 207.313L64 205.188L65 205.188L65 207.313L64 207.313ZM64 210.5L64 209.438L65 209.438L65 210.5L64 210.5Z" fill="#353535"/>
<path fill-rule="evenodd" clip-rule="evenodd" d="M96 166.523L96 165.5L97 165.5L97 166.523L96 166.523ZM96 170.614L96 168.568L97 168.568L97 170.614L96 170.614ZM96 174.705L96 172.659L97 172.659L97 174.705L96 174.705ZM96 178.796L96 176.75L97 176.75L97 178.796L96 178.796ZM96 182.887L96 180.841L97 180.841L97 182.887L96 182.887ZM96 186.977L96 184.932L97 184.932L97 186.977L96 186.977ZM96 191.068L96 189.023L97 189.023L97 191.068L96 191.068ZM96 195.159L96 193.114L97 193.114L97 195.159L96 195.159ZM96 199.25L96 197.205L97 197.205L97 199.25L96 199.25ZM96 203.341L96 201.296L97 201.296L97 203.341L96 203.341ZM96 207.432L96 205.387L97 205.387L97 207.432L96 207.432ZM96 210.5L96 209.477L97 209.477L97 210.5L96 210.5Z" fill="#353535"/>
<path fill-rule="evenodd" clip-rule="evenodd" d="M141 157.464L141 156.5L142 156.5L142 157.464L141 157.464ZM141 161.322L141 159.393L142 159.393L142 161.322L141 161.322ZM141 165.179L141 163.25L142 163.25L142 165.179L141 165.179ZM141 169.036L141 167.107L142 167.107L142 169.036L141 169.036ZM141 172.893L141 170.964L142 170.964L142 172.893L141 172.893ZM141 176.75L141 174.822L142 174.822L142 176.75L141 176.75ZM141 180.607L141 178.679L142 178.679L142 180.607L141 180.607ZM141 184.464L141 182.536L142 182.536L142 184.464L141 184.464ZM141 188.322L141 186.393L142 186.393L142 188.322L141 188.322ZM141 192.179L141 190.25L142 190.25L142 192.179L141 192.179ZM141 196.036L141 194.107L142 194.107L142 196.036L141 196.036ZM141 199.893L141 197.964L142 197.964L142 199.893L141 199.893ZM141 203.75L141 201.822L142 201.822L142 203.75L141 203.75ZM141 207.607L141 205.679L142 205.679L142 207.607L141 207.607ZM141 210.5L141 209.536L142 209.536L142 210.5L141 210.5Z" fill="#353535"/>
<path fill-rule="evenodd" clip-rule="evenodd" d="M174 114.511L174 113.5L175 113.5L175 114.511L174 114.511ZM174 118.552L174 116.531L175 116.531L175 118.552L174 118.552ZM174 122.594L174 120.573L175 120.573L175 122.594L174 122.594ZM174 126.636L174 124.615L175 124.615L175 126.636L174 126.636ZM174 130.677L174 128.656L175 128.656L175 130.677L174 130.677ZM174 134.719L174 132.698L175 132.698L175 134.719L174 134.719ZM174 138.761L174 136.74L175 136.74L175 138.761L174 138.761ZM174 142.802L174 140.781L175 140.781L175 142.802L174 142.802ZM174 146.844L174 144.823L175 144.823L175 146.844L174 146.844ZM174 150.886L174 148.865L175 148.865L175 150.886L174 150.886ZM174 154.927L174 152.906L175 152.906L175 154.927L174 154.927ZM174 158.969L174 156.948L175 156.948L175 158.969L174 158.969ZM174 163.011L174 160.99L175 160.99L175 163.011L174 163.011ZM174 167.052L174 165.031L175 165.031L175 167.052L174 167.052ZM174 171.094L174 169.073L175 169.073L175 171.094L174 171.094ZM174 175.136L174 173.115L175 173.115L175 175.136L174 175.136ZM174 179.177L174 177.156L175 177.156L175 179.177L174 179.177ZM174 183.219L174 181.198L175 181.198L175 183.219L174 183.219ZM174 187.261L174 185.24L175 185.24L175 187.261L174 187.261ZM174 191.302L174 189.281L175 189.281L175 191.302L174 191.302ZM174 195.344L174 193.323L175 193.323L175 195.344L174 195.344ZM174 199.386L174 197.365L175 197.365L175 199.386L174 199.386ZM174 203.427L174 201.406L175 201.406L175 203.427L174 203.427ZM174 207.469L174 205.448L175 205.448L175 207.469L174 207.469ZM174 210.5L174 209.49L175 209.49L175 210.5L174 210.5Z" fill="#353535"/>
<path fill-rule="evenodd" clip-rule="evenodd" d="M222 95.5002L222 94.5002L223 94.5002L223 95.5002L222 95.5002ZM222 99.5002L222 97.5002L223 97.5002L223 99.5002L222 99.5002ZM222 103.5L222 101.5L223 101.5L223 103.5L222 103.5ZM222 107.5L222 105.5L223 105.5L223 107.5L222 107.5ZM222 111.5L222 109.5L223 109.5L223 111.5L222 111.5ZM222 115.5L222 113.5L223 113.5L223 115.5L222 115.5ZM222 119.5L222 117.5L223 117.5L223 119.5L222 119.5ZM222 123.5L222 121.5L223 121.5L223 123.5L222 123.5ZM222 127.5L222 125.5L223 125.5L223 127.5L222 127.5ZM222 131.5L222 129.5L223 129.5L223 131.5L222 131.5ZM222 135.5L222 133.5L223 133.5L223 135.5L222 135.5ZM222 139.5L222 137.5L223 137.5L223 139.5L222 139.5ZM222 143.5L222 141.5L223 141.5L223 143.5L222 143.5ZM222 147.5L222 145.5L223 145.5L223 147.5L222 147.5ZM222 151.5L222 149.5L223 149.5L223 151.5L222 151.5ZM222 155.5L222 153.5L223 153.5L223 155.5L222 155.5ZM222 159.5L222 157.5L223 157.5L223 159.5L222 159.5ZM222 163.5L222 161.5L223 161.5L223 163.5L222 163.5ZM222 167.5L222 165.5L223 165.5L223 167.5L222 167.5ZM222 171.5L222 169.5L223 169.5L223 171.5L222 171.5ZM222 175.5L222 173.5L223 173.5L223 175.5L222 175.5ZM222 179.5L222 177.5L223 177.5L223 179.5L222 179.5ZM222 183.5L222 181.5L223 181.5L223 183.5L222 183.5ZM222 187.5L222 185.5L223 185.5L223 187.5L222 187.5ZM222 191.5L222 189.5L223 189.5L223 191.5L222 191.5ZM222 195.5L222 193.5L223 193.5L223 195.5L222 195.5ZM222 199.5L222 197.5L223 197.5L223 199.5L222 199.5ZM222 203.5L222 201.5L223 201.5L223 203.5L222 203.5ZM222 207.5L222 205.5L223 205.5L223 207.5L222 207.5ZM222 210.5L222 209.5L223 209.5L223 210.5L222 210.5Z" fill="#353535"/>
</svg>
