<?xml version="1.0" standalone="no"?>
<!DOCTYPE svg PUBLIC "-//W3C//DTD SVG 20010904//EN"
 "http://www.w3.org/TR/2001/REC-SVG-20010904/DTD/svg10.dtd">
<svg version="1.0" xmlns="http://www.w3.org/2000/svg"
 width="270.000000pt" height="270.000000pt" viewBox="0 0 270.000000 270.000000"
 preserveAspectRatio="xMidYMid meet">
<metadata>
Created by potrace 1.14, written by Peter Selinger 2001-2017
</metadata>
<g transform="translate(0.000000,270.000000) scale(0.100000,-0.100000)"
fill="#000000" stroke="none">
<path d="M0 1350 l0 -1350 1350 0 1350 0 0 1350 0 1350 -1350 0 -1350 0 0
-1350z m1610 605 c176 -47 305 -174 339 -333 41 -193 -27 -419 -168 -560 -68
-68 -173 -133 -256 -157 -22 -7 -40 -18 -40 -25 0 -7 20 -24 44 -37 64 -34
123 -31 205 10 l66 34 41 -64 c23 -34 39 -69 36 -77 -9 -22 -74 -60 -132 -79
-196 -61 -403 3 -522 164 -31 41 -44 50 -87 60 -131 30 -252 123 -305 232 -72
148 -65 325 20 504 46 97 129 191 213 242 67 40 161 79 219 91 72 14 267 11
327 -5z"/>
<path d="M1298 1751 c-110 -36 -179 -97 -231 -210 -27 -56 -32 -80 -35 -162
-4 -82 -1 -103 18 -147 47 -110 140 -157 294 -150 71 3 103 10 148 30 116 53
196 170 219 318 20 131 -18 235 -108 294 -73 48 -203 59 -305 27z"/>
</g>
</svg>
